/* XPM */
static char *f707ae6d47894f2aa8d3096aa17903e6hIWKtj5IcAozeFQ9[] = {
/* columns rows colors chars-per-pixel */
"64 64 6 1 ",
"  c #181425",
". c #3E2731",
"X c #262B44",
"o c #68386C",
"O c #A22633",
"+ c #5A6988",
/* pixels */
"        XXXXXXXXXXXXXXXXXXXXXXXXXXXXXXXX                        ",
"        XXXXXXXXXXXXXXXXXXXXXXXXXXXXXXXX                        ",
"        XXXXXXXXXXXXXXXXXXXXXXXXXXXXXXXX                        ",
"        XXXXXXXXXXXXXXXXXXXXXXXXXXXXXXXX                        ",
"ooooooooooooooooXXXXOOOOOOOOOOOOOOOOOOOOOOOOOOOO    oooooooooooo",
"ooooooooooooooooXXXXOOOOOOOOOOOOOOOOOOOOOOOOOOOO    oooooooooooo",
"ooooooooooooooooXXXXOOOOOOOOOOOOOOOOOOOOOOOOOOOO    oooooooooooo",
"ooooooooooooooooXXXXOOOOOOOOOOOOOOOOOOOOOOOOOOOO    oooooooooooo",
"oooooooooooooooo    OOOOOOOOOOOOOOOOOOOOOOOOOOOO    oooooooooooo",
"oooooooooooooooo    OOOOOOOOOOOOOOOOOOOOOOOOOOOO    oooooooooooo",
"oooooooooooooooo    OOOOOOOOOOOOOOOOOOOOOOOOOOOO    oooooooooooo",
"oooooooooooooooo    OOOOOOOOOOOOOOOOOOOOOOOOOOOO    oooooooooooo",
"oooooooooooooooo    OOOOOOOOOOOOOOOOOOOOOOOOOOOO    oooooooooooo",
"oooooooooooooooo    OOOOOOOOOOOOOOOOOOOOOOOOOOOO    oooooooooooo",
"oooooooooooooooo    OOOOOOOOOOOOOOOOOOOOOOOOOOOO    oooooooooooo",
"oooooooooooooooo    OOOOOOOOOOOOOOOOOOOOOOOOOOOO    oooooooooooo",
"                            ................                    ",
"                            ................                    ",
"                            ................                    ",
"                            ................                    ",
"    OOOOOOOOOOOOOOOOOOOOOOOOOOOO....OOOOOOOOOOOOOOOOOOOOOOOO++++",
"    OOOOOOOOOOOOOOOOOOOOOOOOOOOO....OOOOOOOOOOOOOOOOOOOOOOOO++++",
"    OOOOOOOOOOOOOOOOOOOOOOOOOOOO....OOOOOOOOOOOOOOOOOOOOOOOO++++",
"    OOOOOOOOOOOOOOOOOOOOOOOOOOOO....OOOOOOOOOOOOOOOOOOOOOOOO++++",
"    OOOOOOOOOOOOOOOOOOOOOOOOOOOO    OOOOOOOOOOOOOOOOOOOOOOOOOOOO",
"    OOOOOOOOOOOOOOOOOOOOOOOOOOOO    OOOOOOOOOOOOOOOOOOOOOOOOOOOO",
"    OOOOOOOOOOOOOOOOOOOOOOOOOOOO    OOOOOOOOOOOOOOOOOOOOOOOOOOOO",
"    OOOOOOOOOOOOOOOOOOOOOOOOOOOO    OOOOOOOOOOOOOOOOOOOOOOOOOOOO",
"....OOOOOOOOOOOOOOOOOOOOOOOOOOOO    OOOOOOOOOOOOOOOOOOOOOOOOOOOO",
"....OOOOOOOOOOOOOOOOOOOOOOOOOOOO    OOOOOOOOOOOOOOOOOOOOOOOOOOOO",
"....OOOOOOOOOOOOOOOOOOOOOOOOOOOO    OOOOOOOOOOOOOOOOOOOOOOOOOOOO",
"....OOOOOOOOOOOOOOOOOOOOOOOOOOOO    OOOOOOOOOOOOOOOOOOOOOOOOOOOO",
"............                                                    ",
"............                                                    ",
"............                                                    ",
"............                                                    ",
"OOOOOOOOOOOOOOOO                                    OOOOOOOOOOOO",
"OOOOOOOOOOOOOOOO                                    OOOOOOOOOOOO",
"OOOOOOOOOOOOOOOO                                    OOOOOOOOOOOO",
"OOOOOOOOOOOOOOOO                                    OOOOOOOOOOOO",
"OOOOOOOOOOOOOOOO                                    OOOOOOOOOOOO",
"OOOOOOOOOOOOOOOO                                    OOOOOOOOOOOO",
"OOOOOOOOOOOOOOOO                                    OOOOOOOOOOOO",
"OOOOOOOOOOOOOOOO                                    OOOOOOOOOOOO",
"OOOOOOOOOOOOOOOO    XXXXXXXXXXXXXXXXXXXXXXXXXXXX    OOOOOOOOOOOO",
"OOOOOOOOOOOOOOOO    XXXXXXXXXXXXXXXXXXXXXXXXXXXX    OOOOOOOOOOOO",
"OOOOOOOOOOOOOOOO    XXXXXXXXXXXXXXXXXXXXXXXXXXXX    OOOOOOOOOOOO",
"OOOOOOOOOOOOOOOO    XXXXXXXXXXXXXXXXXXXXXXXXXXXX    OOOOOOOOOOOO",
"                                                                ",
"                                                                ",
"                                                                ",
"                                                                ",
"    ++++++++++++++++++++++++++++    OOOOOOOOOOOOOOOOOOOOOOOOOOOO",
"    ++++++++++++++++++++++++++++    OOOOOOOOOOOOOOOOOOOOOOOOOOOO",
"    ++++++++++++++++++++++++++++    OOOOOOOOOOOOOOOOOOOOOOOOOOOO",
"    ++++++++++++++++++++++++++++    OOOOOOOOOOOOOOOOOOOOOOOOOOOO",
"    ++++++++++++++++++++++++++++    OOOOOOOOOOOOOOOOOOOOOOOOOOOO",
"    ++++++++++++++++++++++++++++    OOOOOOOOOOOOOOOOOOOOOOOOOOOO",
"    ++++++++++++++++++++++++++++    OOOOOOOOOOOOOOOOOOOOOOOOOOOO",
"    ++++++++++++++++++++++++++++    OOOOOOOOOOOOOOOOOOOOOOOOOOOO",
"    ++++++++++++++++++++++++++++XXXXOOOOOOOOOOOOOOOOOOOOOOOOOOOO",
"    ++++++++++++++++++++++++++++XXXXOOOOOOOOOOOOOOOOOOOOOOOOOOOO",
"    ++++++++++++++++++++++++++++XXXXOOOOOOOOOOOOOOOOOOOOOOOOOOOO",
"    ++++++++++++++++++++++++++++XXXXOOOOOOOOOOOOOOOOOOOOOOOOOOOO"
};
