/* XPM */
static char *eca301f9e7a549b28778eaafdeaa0a49770ZJ87Lcg7l8JKc[] = {
/* columns rows colors chars-per-pixel */
"64 64 7 1 ",
"  c #181425",
". c #3E2731",
"X c #262B44",
"o c #68386C",
"O c #A22633",
"+ c #D77643",
"@ c #5A6988",
/* pixels */
"        XXXXXXXXXXXXXXXXXXXXXXXXXXXXXXXX                        ",
"        XXXXXXXXXXXXXXXXXXXXXXXXXXXXXXXX                        ",
"        XXXXXXXXXXXXXXXXXXXXXXXXXXXXXXXX                        ",
"        XXXXXXXXXXXXXXXXXXXXXXXXXXXXXXXX                        ",
"ooooooooooooooooXXXXOOOOOOOOOOOOOOOOOOOOOOOOOOOO    oooooooooooo",
"ooooooooooooooooXXXXOOOOOOOOOOOOOOOOOOOOOOOOOOOO    oooooooooooo",
"ooooooooooooooooXXXXOOOOOOOOOOOOOOOOOOOOOOOOOOOO    oooooooooooo",
"ooooooooooooooooXXXXOOOOOOOOOOOOOOOOOOOOOOOOOOOO    oooooooooooo",
"oooooooooooooooo    OOOOOOOOOOOOOOOOOOOOOOOOOOOO    oooooooooooo",
"oooooooooooooooo    OOOOOOOOOOOOOOOOOOOOOOOOOOOO    oooooooooooo",
"oooooooooooooooo    OOOOOOOOOOOOOOOOOOOOOOOOOOOO    oooooooooooo",
"oooooooooooooooo    OOOOOOOOOOOOOOOOOOOOOOOOOOOO    oooooooooooo",
"oooooooooooooooo    OOOOOOOOOOOOOOOOOOOOOOOOOOOO    oooooooooooo",
"oooooooooooooooo    OOOOOOOOOOOOOOOOOOOOOOOOOOOO    oooooooooooo",
"oooooooooooooooo    OOOOOOOOOOOOOOOOOOOOOOOOOOOO    oooooooooooo",
"oooooooooooooooo    OOOOOOOOOOOOOOOOOOOOOOOOOOOO    oooooooooooo",
"                            ................                    ",
"                            ................                    ",
"                            ................                    ",
"                            ................                    ",
"    ++++++++++++++++++++++++++++....OOOOOOOOOOOOOOOOOOOOOOOO@@@@",
"    ++++++++++++++++++++++++++++....OOOOOOOOOOOOOOOOOOOOOOOO@@@@",
"    ++++++++++++++++++++++++++++....OOOOOOOOOOOOOOOOOOOOOOOO@@@@",
"    ++++++++++++++++++++++++++++....OOOOOOOOOOOOOOOOOOOOOOOO@@@@",
"    OOOOOOOOOOOOOOOOOOOOOOOOOOOO    OOOOOOOOOOOOOOOOOOOOOOOOOOOO",
"    OOOOOOOOOOOOOOOOOOOOOOOOOOOO    OOOOOOOOOOOOOOOOOOOOOOOOOOOO",
"    OOOOOOOOOOOOOOOOOOOOOOOOOOOO    OOOOOOOOOOOOOOOOOOOOOOOOOOOO",
"    OOOOOOOOOOOOOOOOOOOOOOOOOOOO    OOOOOOOOOOOOOOOOOOOOOOOOOOOO",
"    OOOOOOOOOOOOOOOOOOOOOOOOOOOO    OOOOOOOOOOOOOOOOOOOOOOOOOOOO",
"    OOOOOOOOOOOOOOOOOOOOOOOOOOOO    OOOOOOOOOOOOOOOOOOOOOOOOOOOO",
"    OOOOOOOOOOOOOOOOOOOOOOOOOOOO    OOOOOOOOOOOOOOOOOOOOOOOOOOOO",
"    OOOOOOOOOOOOOOOOOOOOOOOOOOOO    OOOOOOOOOOOOOOOOOOOOOOOOOOOO",
"    OOOOOOOOOOOOOOOOOOOOOOOOOOOO                                ",
"    OOOOOOOOOOOOOOOOOOOOOOOOOOOO                                ",
"    OOOOOOOOOOOOOOOOOOOOOOOOOOOO                                ",
"    OOOOOOOOOOOOOOOOOOOOOOOOOOOO                                ",
"................    ................oooooooooooo    OOOOOOOOOOOO",
"................    ................oooooooooooo    OOOOOOOOOOOO",
"................    ................oooooooooooo    OOOOOOOOOOOO",
"................    ................oooooooooooo    OOOOOOOOOOOO",
"OOOOOOOOOOOOOOOO    OOOOOOOOOOOOOOOOoooooooooooo    OOOOOOOOOOOO",
"OOOOOOOOOOOOOOOO    OOOOOOOOOOOOOOOOoooooooooooo    OOOOOOOOOOOO",
"OOOOOOOOOOOOOOOO    OOOOOOOOOOOOOOOOoooooooooooo    OOOOOOOOOOOO",
"OOOOOOOOOOOOOOOO    OOOOOOOOOOOOOOOOoooooooooooo    OOOOOOOOOOOO",
"OOOOOOOOOOOOOOOOXXXXOOOOOOOOOOOOOOOOOOOOOOOOOOOO....OOOOOOOOOOOO",
"OOOOOOOOOOOOOOOOXXXXOOOOOOOOOOOOOOOOOOOOOOOOOOOO....OOOOOOOOOOOO",
"OOOOOOOOOOOOOOOOXXXXOOOOOOOOOOOOOOOOOOOOOOOOOOOO....OOOOOOOOOOOO",
"OOOOOOOOOOOOOOOOXXXXOOOOOOOOOOOOOOOOOOOOOOOOOOOO....OOOOOOOOOOOO",
"                                            ................    ",
"                                            ................    ",
"                                            ................    ",
"                                            ................    ",
"    @@@@@@@@@@@@@@@@@@@@@@@@@@@@    OOOOOOOOOOOOOOOOOOOOOOOOOOOO",
"    @@@@@@@@@@@@@@@@@@@@@@@@@@@@    OOOOOOOOOOOOOOOOOOOOOOOOOOOO",
"    @@@@@@@@@@@@@@@@@@@@@@@@@@@@    OOOOOOOOOOOOOOOOOOOOOOOOOOOO",
"    @@@@@@@@@@@@@@@@@@@@@@@@@@@@    OOOOOOOOOOOOOOOOOOOOOOOOOOOO",
"    @@@@@@@@@@@@@@@@@@@@@@@@@@@@    OOOOOOOOOOOOOOOOOOOOOOOOOOOO",
"    @@@@@@@@@@@@@@@@@@@@@@@@@@@@    OOOOOOOOOOOOOOOOOOOOOOOOOOOO",
"    @@@@@@@@@@@@@@@@@@@@@@@@@@@@    OOOOOOOOOOOOOOOOOOOOOOOOOOOO",
"    @@@@@@@@@@@@@@@@@@@@@@@@@@@@    OOOOOOOOOOOOOOOOOOOOOOOOOOOO",
"    @@@@@@@@@@@@@@@@@@@@@@@@@@@@XXXXOOOOOOOOOOOOOOOOOOOOOOOOOOOO",
"    @@@@@@@@@@@@@@@@@@@@@@@@@@@@XXXXOOOOOOOOOOOOOOOOOOOOOOOOOOOO",
"    @@@@@@@@@@@@@@@@@@@@@@@@@@@@XXXXOOOOOOOOOOOOOOOOOOOOOOOOOOOO",
"    @@@@@@@@@@@@@@@@@@@@@@@@@@@@XXXXOOOOOOOOOOOOOOOOOOOOOOOOOOOO"
};
