/* XPM */
static char *_96bb324c75244b3ff3984b83fd5ef73b8V2b0dBdDqu1fdz[] = {
/* columns rows colors chars-per-pixel */
"64 64 6 1 ",
"  c #181425",
". c #3E2731",
"X c #262B44",
"o c #68386C",
"O c #A22633",
"+ c #5A6988",
/* pixels */
"        XXXXXXXXXXXXXXXXXXXXXXXXXXXXXXXX                        ",
"        XXXXXXXXXXXXXXXXXXXXXXXXXXXXXXXX                        ",
"        XXXXXXXXXXXXXXXXXXXXXXXXXXXXXXXX                        ",
"        XXXXXXXXXXXXXXXXXXXXXXXXXXXXXXXX                        ",
"ooooooooooooooooXXXXOOOOOOOOOOOOOOOOOOOOOOOOOOOO    oooooooooooo",
"ooooooooooooooooXXXXOOOOOOOOOOOOOOOOOOOOOOOOOOOO    oooooooooooo",
"ooooooooooooooooXXXXOOOOOOOOOOOOOOOOOOOOOOOOOOOO    oooooooooooo",
"ooooooooooooooooXXXXOOOOOOOOOOOOOOOOOOOOOOOOOOOO    oooooooooooo",
"oooooooooooooooo    OOOOOOOOOOOOOOOOOOOOOOOOOOOO    oooooooooooo",
"oooooooooooooooo    OOOOOOOOOOOOOOOOOOOOOOOOOOOO    oooooooooooo",
"oooooooooooooooo    OOOOOOOOOOOOOOOOOOOOOOOOOOOO    oooooooooooo",
"oooooooooooooooo    OOOOOOOOOOOOOOOOOOOOOOOOOOOO    oooooooooooo",
"oooooooooooooooo    OOOOOOOOOOOOOOOOOOOOOOOOOOOO    oooooooooooo",
"oooooooooooooooo    OOOOOOOOOOOOOOOOOOOOOOOOOOOO    oooooooooooo",
"oooooooooooooooo    OOOOOOOOOOOOOOOOOOOOOOOOOOOO    oooooooooooo",
"oooooooooooooooo    OOOOOOOOOOOOOOOOOOOOOOOOOOOO    oooooooooooo",
"                            ................                    ",
"                            ................                    ",
"                            ................                    ",
"                            ................                    ",
"    OOOOOOOOOOOOOOOOOOOOOOOOOOOO....OOOOOOOOOOOOOOOOOOOOOOOO++++",
"    OOOOOOOOOOOOOOOOOOOOOOOOOOOO....OOOOOOOOOOOOOOOOOOOOOOOO++++",
"    OOOOOOOOOOOOOOOOOOOOOOOOOOOO....OOOOOOOOOOOOOOOOOOOOOOOO++++",
"    OOOOOOOOOOOOOOOOOOOOOOOOOOOO....OOOOOOOOOOOOOOOOOOOOOOOO++++",
"    OOOOOOOOOOOOOOOOOOOOOOOOOOOO    OOOOOOOOOOOOOOOOOOOOOOOOOOOO",
"    OOOOOOOOOOOOOOOOOOOOOOOOOOOO    OOOOOOOOOOOOOOOOOOOOOOOOOOOO",
"    OOOOOOOOOOOOOOOOOOOOOOOOOOOO    OOOOOOOOOOOOOOOOOOOOOOOOOOOO",
"    OOOOOOOOOOOOOOOOOOOOOOOOOOOO    OOOOOOOOOOOOOOOOOOOOOOOOOOOO",
"    OOOOOOOOOOOOOOOOOOOOOOOOOOOO    OOOOOOOOOOOOOOOOOOOOOOOOOOOO",
"    OOOOOOOOOOOOOOOOOOOOOOOOOOOO    OOOOOOOOOOOOOOOOOOOOOOOOOOOO",
"    OOOOOOOOOOOOOOOOOOOOOOOOOOOO    OOOOOOOOOOOOOOOOOOOOOOOOOOOO",
"    OOOOOOOOOOOOOOOOOOOOOOOOOOOO    OOOOOOOOOOOOOOOOOOOOOOOOOOOO",
"            XXXXXXXXXXXXXXXX                                    ",
"            XXXXXXXXXXXXXXXX                                    ",
"            XXXXXXXXXXXXXXXX                                    ",
"            XXXXXXXXXXXXXXXX                                    ",
"OOOOOOOOOOOOOOOO    OOOOOOOOOOOOOOOOoooooooooooo    OOOOOOOOOOOO",
"OOOOOOOOOOOOOOOO    OOOOOOOOOOOOOOOOoooooooooooo    OOOOOOOOOOOO",
"OOOOOOOOOOOOOOOO    OOOOOOOOOOOOOOOOoooooooooooo    OOOOOOOOOOOO",
"OOOOOOOOOOOOOOOO    OOOOOOOOOOOOOOOOoooooooooooo    OOOOOOOOOOOO",
"OOOOOOOOOOOOOOOO    OOOOOOOOOOOOOOOOoooooooooooo    OOOOOOOOOOOO",
"OOOOOOOOOOOOOOOO    OOOOOOOOOOOOOOOOoooooooooooo    OOOOOOOOOOOO",
"OOOOOOOOOOOOOOOO    OOOOOOOOOOOOOOOOoooooooooooo    OOOOOOOOOOOO",
"OOOOOOOOOOOOOOOO    OOOOOOOOOOOOOOOOoooooooooooo    OOOOOOOOOOOO",
"OOOOOOOOOOOOOOOO    OOOOOOOOOOOOOOOOOOOOOOOOOOOO....OOOOOOOOOOOO",
"OOOOOOOOOOOOOOOO    OOOOOOOOOOOOOOOOOOOOOOOOOOOO....OOOOOOOOOOOO",
"OOOOOOOOOOOOOOOO    OOOOOOOOOOOOOOOOOOOOOOOOOOOO....OOOOOOOOOOOO",
"OOOOOOOOOOOOOOOO    OOOOOOOOOOOOOOOOOOOOOOOOOOOO....OOOOOOOOOOOO",
"                                            ................    ",
"                                            ................    ",
"                                            ................    ",
"                                            ................    ",
"    ++++++++++++++++++++++++++++    OOOOOOOOOOOOOOOOOOOOOOOOOOOO",
"    ++++++++++++++++++++++++++++    OOOOOOOOOOOOOOOOOOOOOOOOOOOO",
"    ++++++++++++++++++++++++++++    OOOOOOOOOOOOOOOOOOOOOOOOOOOO",
"    ++++++++++++++++++++++++++++    OOOOOOOOOOOOOOOOOOOOOOOOOOOO",
"    ++++++++++++++++++++++++++++    OOOOOOOOOOOOOOOOOOOOOOOOOOOO",
"    ++++++++++++++++++++++++++++    OOOOOOOOOOOOOOOOOOOOOOOOOOOO",
"    ++++++++++++++++++++++++++++    OOOOOOOOOOOOOOOOOOOOOOOOOOOO",
"    ++++++++++++++++++++++++++++    OOOOOOOOOOOOOOOOOOOOOOOOOOOO",
"    ++++++++++++++++++++++++++++XXXXOOOOOOOOOOOOOOOOOOOOOOOOOOOO",
"    ++++++++++++++++++++++++++++XXXXOOOOOOOOOOOOOOOOOOOOOOOOOOOO",
"    ++++++++++++++++++++++++++++XXXXOOOOOOOOOOOOOOOOOOOOOOOOOOOO",
"    ++++++++++++++++++++++++++++XXXXOOOOOOOOOOOOOOOOOOOOOOOOOOOO"
};
